<svg id="Flaconi Logo" xmlns="http://www.w3.org/2000/svg" viewBox="0 0 11305.44 2883.13">
    <path
        d="M7088.26,1438.08q-14.67-37.87-26.31-89a633.87,633.87,0,0,0-30.65-97.81q-19-46.7-46.7-78.84t-74.46-32.13q-84.71,0-148.88,124.09T6697,1630.79q0,292,116.76,445.25t312.43,153.28q111,0,204.37-55.44c62.29-37,123-102,171.05-202l18.78,45.23c-44.78,165.45-123.67,298.81-230.7,384.43s-239.43,128.48-397.07,128.48q-137.28,0-258.4-49.62a642.4,642.4,0,0,1-213.12-141.64q-92-92-146-219t-54-284.66q0-160.57,56.95-296.36t157.64-236.5q100.77-100.74,239.43-157.68t302.21-56.94q125.49,0,218.94,27.75T7352.48,1187q62.78,43.79,93.43,97.81t30.66,109.5q0,75.95-52.56,129.91t-143.07,54Q7137.87,1578.24,7088.26,1438.08Z"/>
    <path
        d="M8220.8,2530.06q-157.68,0-293.41-55.49t-233.61-153.28q-97.83-97.77-153.28-227.74t-55.45-278.82q0-148.92,58.38-281.75t159.1-230.65q100.77-97.8,235.08-156.21t283.19-58.41q163.49,0,299.28,56.94t232.09,153.28q96.38,96.38,150.4,227.75t54,280.3a698.93,698.93,0,0,1-55.45,274.46q-55.52,131.36-154.75,230.63t-233.56,159.15Q8378.43,2530,8220.8,2530.06Zm-233.56-729.92q0,318.28,61.31,497.78T8220.8,2477.5q43.78,0,84.68-29.19t73-103.65q32.06-74.44,51.09-202.91t19-327q0-324.09-62.77-499.27t-176.65-175.19q-43.79,0-83.22,30.66t-70.07,106.56q-30.65,76-49.62,202.93T7987.24,1800.14Z"/>
    <path
        d="M10683.52,857.06q37.92,38,90.55,59.87a278.2,278.2,0,0,0,108,21.88q122.63,0,204.37-81.75t81.75-192.69q0-119.7-81.75-201.47t-204.37-81.75a277.69,277.69,0,0,0-108,21.91q-52.57,21.88-90.55,59.84t-61.31,90.51a270,270,0,0,0-23.32,111,243.46,243.46,0,0,0,23.32,105.1A308.68,308.68,0,0,0,10683.52,857.06Z"/>
    <path
        d="M11188.64,2397.22q-55.44-45.25-55.45-156.21v-765l5.82-376.65-23.37-8.75-659.82,181v29.19a214.91,214.91,0,0,1,70.07,5.84q35.06,8.77,61.31,30.66t43.81,62.78q17.46,40.92,17.5,105.1l-.37,724.28c0,35.75-2.87,74.23-17.61,107.28-10.62,23.79-57,86.45-107.47,86.45-51.22,0-93.23-49.1-109.3-85.58-14-31.75-15.76-73.37-16.66-107.76-.1-4.18.22-762.62.22-762.62q0-189.76-102.19-284.68t-265.69-94.9q-149,0-274.48,74.47T9538.9,1333V1099.4l-23.33-8.75-648.17,181v29.19a214.87,214.87,0,0,1,70.06,5.84q35.06,8.77,61.31,30.66t43.81,62.78q17.46,40.92,17.51,105.1V2241q0,111-51.1,156.21t-112.4,51.09v29.19h776.62v-26.25q-58.44-5.86-93.44-49.68t-35-160.56v-843.8a468.67,468.67,0,0,1,99.26-67.16q52.57-26.25,105.12-26.28,75.9,0,119.69,52.56t43.81,160.59V2241q0,116.82-32.12,160.56t-99.26,49.68v26.25l707,0s43.16-.15,43.17,0h774v-29.19Q11244.13,2442.52,11188.64,2397.22Z"/>
    <path
        d="M6347,2245.47c-50.31,71.73-93.36,90.83-132,90.83q-84.7,0-84.68-116.8V1550.88q0-210.23-147.42-337.22t-451.11-127q-289.06,0-429.21,92T4962.42,1402q0,84.7,55.49,137.22t134.29,52.56q64.22,0,125.56-38t93.43-131.38q20.4-55.41,27.73-108t17.52-92q10.2-39.42,32.13-64.25t71.53-24.81q61.31,0,92,58.4t30.65,213.13v256.93q-224.85,61.35-370.8,124.09t-232.13,130Q4953.66,1983,4920.1,2056t-33.59,154.74q0,78.84,29.19,137.2c17.55,35.16,41,64.86,68.9,90.47-47.66-6.56-98.77-18.06-120.16-40.8-32.29-34.31-54.88-67-55.47-160l.85-2112.79-23.37-8.78L4366,224.09Q4246.26,192,4117.86,192t-258.4,46.72q-130,46.72-236.5,143.06T3447.78,628.49q-68.64,150.42-74.47,357.65v91.18H3158.91l-.08,86h214.34l-.68,1062q0,113.89-45.26,165c-30.19,34.08-69.85,56.17-118.48,60l.24,26.12h811.67l-.23-26.12c-48.67-3.86-87.85-25.95-118-60s-45.25-89-45.25-165c0,0,.67-1060.91.67-1062h277.6l.08-86H3854.57c-.78-10-1.36-20.17-2.42-29.86l-5.84-61.32Q3831.69,875.22,3812.74,773t-19-213.15q0-122.62,61.31-205.84t192.69-83.22q61.32,0,112.41,27.75A280.77,280.77,0,0,1,4247.77,373q36.49,46.76,56.94,108t20.43,131.4l-.85,1625.2c0,74-16.06,131.28-48.16,161.45s-67.67,47.18-106.59,51.09v26.26h865.53c21.13,12.84,43.31,24.05,67.5,32.12A404.11,404.11,0,0,0,5231,2529q110.93,0,226.28-52.56t208.75-146c21.41,66.2,55.28,121.83,104,152.93s108,46.69,178.09,46.69q131.39,0,236.52-62.73c64.1-38.29,110.47-81.09,182.73-193.49Zm-835.69,79.15q-73,0-125.55-54t-52.56-170.79a469.9,469.9,0,0,1,11.68-102.18q11.64-52.59,46.72-103.66t94.88-97.83q59.81-46.65,156.21-84.66v455.47a604.44,604.44,0,0,0,8.75,105.12Q5587.23,2324.58,5511.34,2324.62Z"/>
    <path
        d="M2367,1345.76c-4.4-36.71-23.16-65.41-54.4-85.13-35.13-22.13-75.66-29.48-117.4-33.37-46.27-4.3-92.93-.7-139.4,7.13q-83.37,14.11-166.53,31.28c-30.31,6.23-60.27,14.48-90.2,22.32-5.07,1.35-10.53,2.92-15.54,1.38-9.41-3-7.48-14.77,2.63-22,9.06-6.42,13.07-7.8,31.22-15.41,10.53-4.4,21.25-8.54,32.11-12.27q42.91-14.73,85.86-29.22c32.28-10.79,65.41-18.88,96.88-31.63,45.54-18.43,88.6-41.77,125.3-76.36,24.76-23.34,43.35-49.8,50.9-81.59,6.36-26.75,10-34.36,13.1-61.43,3.79-33,6.84-66.06,8-99,.86-27.23-2.15-54.24-2.25-81.4-.13-27.78-5.94-54-14.9-79.19-15.8-44.25-48.59-80.7-91.74-99.35-47-20.3-97.72-25.34-148.74-26.59,0,0-102.66-12.88-376,30.44-119.29,18.91-216.07,35.55-283.8,51.79-50.57,12.08-83.1,24.92-104.52,26.56-12.94,1-16.89-2.66-18.18-7.87,0-4.85,3.41-10.14,16.57-19,57.26-38.76,216.44-111,304.2-147.87,32.3-13.59,65-26,95.72-43.1,12.62-7,15.09-15.92,12.14-28.93-2.89-12.71-1.45-24.31,9.89-35.1,12.62-12.07,24-25.46,35.1-38.88,5.74-7,8.51-15.45,4-24q-9.48-18-18.65-36c-11.47-22.67-12.69-34.42,6.26-57.19,9.09-10.92,18.46-21.71,26.91-33.11,14.77-20,15.41-40.49,3-59.47-8.44-12.94-17.88-25.62-29.06-36.25-20.16-19.17-36.38-40.14-46.4-66.86-12.55-33.49-44.86-51.7-82.46-48.71C1401.27,10.34,1278,53,1162.1,99.64Q1071,136.3,981.7,178.28c-61.85,29.09-123.54,59.12-183.33,92.51C732.48,307.62,668,347.31,604.55,388.42c-76.14,49.26-146,107.25-215,166.08-37,31.53-72.6,64.61-107.51,98.29q-29.52,28.47-57.76,58.28c-64.93,68.5-116.18,146.17-167.24,225.14-89.21,138.08-70.74,333.47,33.68,458.55,19.5,23.44,41.52,44.47,71.52,54.2,17.05,5.56,35.93,7.52,54.3,8.48,30.37,1.7,60.94-1.8,90.29-13.55,19.66-7.9,39.05-16.47,58.32-25.24l2.86-1.48c4.24-2,8.57-3.85,12.81-5.91,73.47-35.32,146.72-76.81,219.26-114,7.29-3.73,15.09-7.87,23.44-8.16a13.08,13.08,0,0,1,7.19,1.74,9.84,9.84,0,0,1,4.34,7.8c0,5.94-5.08,8.29-9.22,11.21-5.36,3.92-10.82,7.64-16.38,11.4-11,7.41-22.12,14.67-33.07,22.25q-21.72,14.84-43.19,30.19-46.73,33.57-92.71,68.23c-49.16,37.19-97.62,75.4-144.72,115.22-52.22,44.09-102,91.13-151.28,138.66-57.61,55.55-111,115.6-128.22,195.49-10,46.08-11.63,91.29-2.12,135.86,8.32,39,16.34,78.23,27,116.54,11.69,41.93,23.73,84,40.08,124.07,24.24,59.44,61.49,109.73,118.52,142.68,30.28,17.5,64.71,19.52,100.16,11.59,22.48-5,43.8-14.45,63.45-26.49,65.06-39.82,127.9-83,187-131.53,64.35-52.86,127.16-105.3,199.12-147.84a21.36,21.36,0,0,1,7.36-3.18,11.42,11.42,0,0,1,12.39,7.58c3.63,11.88-18.62,26.74-25.59,33.3-33.66,31.34-65.06,64.22-89.21,103.52S609.88,2337,598.25,2381c-16.57,62.42-19.23,129.69-1.31,192.18.16.65.38,1.26.54,1.87,21.45,73.05,62.59,133.71,123,179.5,58.7,44.6,134.58,33.75,197-7.07,24-15.6,46-34.26,69.68-50.35,74.89-51,137.95-96.11,214.15-145.2,36.77-23.67,74.25-46.28,112-68.43,29.7-17.44,59.21-37.9,90.36-52.38,6.13-2.86,26.55-10.31,28.19,1.61.68,5-2.47,10.11-4.33,12-5,5-9,8.8-13,12.5-12.1,11.2-30.92,30.44-41.9,42.74q-30.3,33.71-57.87,69.74c-36.48,47.88-68.88,99.07-94.73,153.5-16.89,35.48-24.72,66.72-24.85,108.21a46.74,46.74,0,0,0,16.89,36.29c12.36,10.14,24.63,16.18,40.62,15.41,29-1.48,57.42-10,83.43-22.51a251.19,251.19,0,0,0,30-17.11c10-6.75,19.33-16,31.5-18.66,6.23-1.41,13.36-.45,17.92,4,9,8.83,10.18,21.32,24.15,25,18,4.72,34.9-13.23,47.17-23.93,15.54-13.58,29.8-28.51,44.83-42.67,24.63-23.19,48.16-47.46,71.35-72.06,50.93-54,107.28-102.95,164.51-150.19,55.55-45.82,116.27-90.62,175.87-133.36,61-43.76,126.9-83.78,180.34-136.73,22.57-22.35,40.27-47.78,51.09-76.65,19.2-51.34,24.08-103.36,13.58-155.19-14.87-73.54-59.28-121.09-131-143.6a340.81,340.81,0,0,0-76.13-14.74c-26-4.5-52.6-6.14-78.13-6.68a930.22,930.22,0,0,0-138,7.35q-74.43,9.43-148,24.28c-14.2,2.89-28.39,5.91-42.36,9.6-9.38,2.44-18.4,5.39-27.58,8.41-6.1,2-17.41,5.3-22-.93-2.15-2.89-1.64-7,0-10,3.05-5.58,9.34-8.8,14.45-12.26,5.68-3.92,11.56-7.58,17.53-11,11.47-6.71,23.25-12.84,34.68-19.62q34.35-20.52,69.59-39.53c44.12-23.7,89.85-44.18,135.12-65.41,31.41-14.67,62.88-29.54,95-42.07,58.38-22.7,117.37-43.54,175.91-65.63q55.44-21,110.27-43.45c31.53-13,63.06-26.17,94-40.68,28.64-13.46,53-35.17,67.53-63.26,12.94-24.89,18.62-51.54,22.41-78.42a375.18,375.18,0,0,0,3.5-42.74c.61-22.22,4.53-45.15,1.93-66.82"/>
</svg>
